<svg width="130" height="36" viewBox="0 0 130 36" fill="none" xmlns="http://www.w3.org/2000/svg">
<path d="M97.3877 0H105.737V2.35834H102.779V9.47229H100.345V2.35834H97.3868L97.3877 0Z" fill="#E92E30"></path>
<path d="M118.107 0V9.46874H115.673V5.94849H111.803V9.46874H109.381V0H111.803V3.67865H115.673V0H118.107Z" fill="#E92E30"></path>
<path d="M121.983 0H129.273V2.35834H124.417V3.71847H128.41V5.91575H124.417V7.12988H129.273V9.47317H121.983V0Z" fill="#E92E30"></path>
<path d="M85.8582 13.1182H90.5805C92.6254 13.1182 93.6599 14.2235 93.6599 15.7287C93.6781 16.1358 93.5792 16.5395 93.3748 16.8924C93.1705 17.2452 92.8692 17.5323 92.5065 17.7198C92.9741 17.8642 93.3817 18.157 93.6672 18.5536C93.9527 18.9502 94.1006 19.429 94.0884 19.9171C94.0884 21.4834 92.92 22.5878 90.9975 22.5878H85.8618L85.8582 13.1182ZM88.2926 15.3305V16.8349H90.3011C90.9585 16.8349 91.2016 16.5314 91.2016 16.0818C91.2111 15.9795 91.1977 15.8764 91.1624 15.78C91.1271 15.6835 91.0707 15.596 90.9973 15.524C90.924 15.4519 90.8354 15.397 90.7382 15.3632C90.6409 15.3295 90.5374 15.3177 90.4351 15.3287L88.2926 15.3305ZM88.2926 18.7295V20.3923H90.7269C91.3843 20.3923 91.6274 20.0383 91.6274 19.5428C91.6274 19.0472 91.3843 18.7295 90.7269 18.7295H88.2926Z" fill="#E92E30"></path>
<path d="M97.6875 13.1182H104.977V15.473H100.121V16.8331H104.113V19.0304H100.121V20.2445H104.977V22.5878H97.6875V13.1182Z" fill="#E92E30"></path>
<path d="M114.24 13.1182L118.074 22.5869H115.421L114.897 21.2029H111.162L110.638 22.5869H107.985L111.83 13.1182H114.24ZM113.035 16.2261L111.989 19.0056H114.07L113.035 16.2261Z" fill="#E92E30"></path>
<path d="M125.509 13.1182C125.98 13.0747 126.454 13.1336 126.899 13.2909C127.344 13.4481 127.75 13.7 128.088 14.0291C128.426 14.3582 128.688 14.7566 128.857 15.1967C129.025 15.6369 129.096 16.1082 129.063 16.5783C129.096 17.2283 128.936 17.8735 128.602 18.4329C128.269 18.9923 127.777 19.4409 127.189 19.7224L129.245 22.5878H126.337L124.535 20.0507H123.293V22.5878H120.871V13.1191L125.509 13.1182ZM123.292 15.3305V17.8552H125.372C125.546 17.8779 125.723 17.8619 125.89 17.8084C126.056 17.7548 126.209 17.6651 126.337 17.5455C126.465 17.4259 126.565 17.2796 126.63 17.1169C126.694 16.9543 126.722 16.7794 126.711 16.6048C126.729 16.4276 126.706 16.2487 126.644 16.0816C126.582 15.9146 126.483 15.7638 126.354 15.6408C126.225 15.5178 126.069 15.4259 125.899 15.3719C125.729 15.318 125.548 15.3035 125.372 15.3296L123.292 15.3305Z" fill="#E92E30"></path>
<path d="M82.0293 26.2417V35.7104H79.5949V32.1902H75.7253V35.7104H73.3033V26.2417H75.7253V29.9203H79.5949V26.2417H82.0293Z" fill="#E92E30"></path>
<path d="M90.2319 26.062C91.5528 26.0505 92.8246 26.5613 93.769 27.4827C94.7133 28.4041 95.2534 29.6611 95.2709 30.9787C95.2534 32.2963 94.7133 33.5533 93.769 34.4747C92.8246 35.3962 91.5528 35.907 90.2319 35.8954C88.9128 35.9007 87.6448 35.3878 86.702 34.4677C85.7592 33.5476 85.2173 32.2942 85.1938 30.9787C85.2173 29.6632 85.7592 28.4098 86.702 27.4897C87.6448 26.5696 88.9128 26.0567 90.2319 26.062ZM90.2319 33.5521C90.5717 33.556 90.909 33.4921 91.2237 33.3642C91.5385 33.2362 91.8245 33.0468 92.0649 32.8071C92.3052 32.5673 92.4951 32.2821 92.6233 31.9681C92.7516 31.6541 92.8157 31.3177 92.8118 30.9787C92.8157 30.6397 92.7516 30.3033 92.6233 29.9893C92.4951 29.6753 92.3052 29.3901 92.0649 29.1503C91.8245 28.9106 91.5385 28.7212 91.2237 28.5933C90.909 28.4653 90.5717 28.4014 90.2319 28.4053C89.8928 28.4044 89.557 28.4703 89.2436 28.5993C88.9301 28.7283 88.6453 28.9178 88.4056 29.157C88.1658 29.3961 87.9759 29.6802 87.8466 29.9928C87.7172 30.3055 87.6511 30.6405 87.6521 30.9787C87.6515 31.3167 87.7179 31.6515 87.8473 31.9638C87.9768 32.2761 88.1668 32.5599 88.4065 32.7987C88.6463 33.0376 88.9309 33.2269 89.2441 33.3557C89.5574 33.4845 89.893 33.5504 90.2319 33.5494V33.5521Z" fill="#E92E30"></path>
<path d="M107.069 26.2417V31.5716C107.107 32.152 107.019 32.7337 106.812 33.2775C106.605 33.8213 106.284 34.3146 105.87 34.7241C105.456 35.1337 104.959 35.4499 104.412 35.6517C103.865 35.8534 103.281 35.9359 102.7 35.8936C102.118 35.9374 101.535 35.8559 100.988 35.6546C100.441 35.4532 99.9435 35.1368 99.5301 34.7267C99.1166 34.3167 98.7966 33.8227 98.5916 33.2782C98.3866 32.7338 98.3016 32.1517 98.3422 31.5716V26.2417H100.777V31.4256C100.777 32.7972 101.434 33.5494 102.7 33.5494C103.966 33.5494 104.647 32.7964 104.647 31.4256V26.2417H107.069Z" fill="#E92E30"></path>
<path d="M112.819 32.8698V32.9309C112.819 33.2955 113.317 33.7928 114.425 33.7928C115.338 33.7928 115.63 33.4893 115.63 33.2105C115.63 32.8096 115.155 32.5672 114.011 32.1787C112.503 31.6805 110.518 30.9522 110.518 28.9973C110.518 27.1886 112.064 26.0594 114.231 26.0594C116.449 26.0594 118.113 27.2372 118.113 29.1186V29.2522H115.74V29.1637C115.74 28.7027 115.266 28.1567 114.28 28.1567C113.452 28.1567 113.127 28.485 113.127 28.8C113.127 29.1761 113.565 29.3708 114.697 29.7593C116.012 30.2203 118.251 30.9982 118.251 33.0733C118.251 34.9184 116.644 35.8901 114.479 35.8901C112.202 35.8901 110.45 34.8335 110.45 32.9769V32.8671L112.819 32.8698Z" fill="#E92E30"></path>
<path d="M121.948 26.2417H129.238V28.5965H124.382V29.9557H128.374V32.153H124.382V33.3671H129.238V35.7104H121.948V26.2417Z" fill="#E92E30"></path>
<path d="M37.6062 32.8282H37.599C36.8893 32.2972 36.2266 30.0371 35.8247 29.3345C35.7767 29.2553 35.7124 29.1871 35.6359 29.1346C35.5594 29.0821 35.4725 29.0465 35.3812 29.0301C34.7451 28.885 30.8487 28.1894 29.3148 27.8797C29.3381 28.2228 29.3808 28.5643 29.4426 28.9027C29.5108 29.2368 29.6263 29.5595 29.7859 29.861C30.1962 30.3697 30.6324 30.8571 31.0927 31.3212C31.287 31.5344 31.4902 31.7406 31.6871 31.9512C31.7059 31.9768 31.7217 32.0044 31.7341 32.0335C31.7137 32.0539 31.7057 32.0681 31.6933 32.0743C31.6365 32.1052 31.5788 32.1362 31.5203 32.1628C31.1273 32.3471 30.7782 32.6125 30.4957 32.9415C30.2345 33.252 30.0554 33.6229 29.9749 34.0202C29.9456 34.1574 29.9846 34.2087 30.1195 34.2308C30.1554 34.2348 30.1916 34.2363 30.2278 34.2352C31.3633 34.2503 32.498 34.36 33.6335 34.3742C33.9662 34.3742 34.2997 34.3742 34.6324 34.3742C35.4248 34.4128 36.2172 34.3005 36.9674 34.0432C37.3278 33.7343 37.5564 33.2997 37.6062 32.8282Z" fill="#E92E30"></path>
<path d="M16.2968 32.7282C15.5507 32.853 14.1677 33.0335 13.7551 33.5485C13.1794 34.2698 13.1945 34.4884 13.1945 34.4884C13.6159 34.6519 14.0587 34.7544 14.5093 34.7928C14.5847 34.6476 15.0734 33.1291 16.2968 32.7282Z" fill="#E92E30"></path>
<path d="M44.1755 31.5893C44.0508 31.1803 43.8989 30.7801 43.7212 30.3911C43.5016 29.9648 43.3087 29.5254 43.1437 29.0752C42.986 28.6415 42.8945 28.1866 42.8723 27.7257C42.8282 27.2076 42.8604 26.6858 42.968 26.1771C43.1809 25.1771 43.4116 24.1816 43.6316 23.1825C43.7833 22.4869 43.9252 21.7887 44.0681 21.0914C44.1649 20.5674 44.2272 20.0377 44.2544 19.5056C44.2798 18.9424 44.197 18.3795 44.0105 17.8472C43.7991 17.1578 43.5382 16.4844 43.2298 15.8323C42.9827 15.2953 42.7003 14.7753 42.3843 14.2757C41.9054 13.511 41.3249 12.8144 40.6587 12.2049C40.3988 11.9766 40.1407 11.7439 39.8666 11.5342C39.3819 11.1683 38.8543 10.8628 38.2954 10.6245C37.9513 10.4726 37.5953 10.3491 37.2309 10.2554C36.7776 10.1422 36.3127 10.0652 35.8505 9.98997C35.437 9.92625 35.021 9.87935 34.6084 9.84573C34.2482 9.81652 33.8863 9.80412 33.5253 9.80589C32.7517 9.8112 31.9781 9.82979 31.2054 9.84395C31.1757 9.84414 31.146 9.84593 31.1166 9.84927L30.0432 9.97314C29.6635 10.0174 29.2829 10.0563 28.905 10.1094C28.441 10.174 27.9797 10.2546 27.5157 10.3209C27.1732 10.3705 26.8272 10.3988 26.4857 10.4537C25.9728 10.5419 25.4498 10.5547 24.9332 10.4917C24.5734 10.4518 24.2239 10.3471 23.9014 10.1829C23.5324 9.98553 23.1704 9.77404 22.8137 9.55458C22.1431 9.13274 21.3628 8.91728 20.5702 8.93512C20.2109 8.94308 19.8507 8.98114 19.4932 9.02361C19.2565 9.05219 19.0222 9.09834 18.7923 9.16167C18.1155 9.37154 17.4673 9.66432 16.8627 10.0333C16.1235 10.5049 15.2923 10.8143 14.424 10.9412C14.3522 10.9492 14.2812 10.9581 14.2093 10.9678C14.9493 11.2932 15.5832 11.8186 16.0395 12.4846C16.1282 12.6288 15.6501 12.3076 15.4123 12.1509C14.8417 11.7916 14.2491 11.4683 13.638 11.1828C13.0536 10.8793 12.4055 10.7177 11.7466 10.7112C11.3184 10.6907 10.8894 10.731 10.4726 10.8306C10.2542 10.8781 10.0416 10.9487 9.83831 11.0413C9.62274 11.1634 9.38347 11.2383 9.13656 11.2607C9.06665 11.2569 9.00051 11.228 8.95029 11.1793C8.69125 10.9138 8.44281 10.6484 8.18465 10.3829C8.03212 10.227 7.84131 10.1138 7.63116 10.0546C7.39872 9.98908 7.31967 10.013 7.20079 10.2192C7.07475 10.4296 6.96396 10.6487 6.86909 10.8749C6.68279 11.3359 6.51423 11.8041 6.34213 12.2704C6.32656 12.3221 6.29928 12.3695 6.26253 12.4091C6.22578 12.4486 6.18053 12.4793 6.13009 12.4987C5.81249 12.6173 5.48777 12.7235 5.17904 12.8624C4.7195 13.0704 4.2635 13.2916 3.82081 13.5332C3.67964 13.6185 3.56481 13.741 3.489 13.8872C3.32133 14.2058 3.1847 14.5403 3.04098 14.8712C3.0271 14.9083 3.00442 14.9415 2.97492 14.968C2.94542 14.9945 2.90994 15.0135 2.8715 15.0234C2.74641 15.0588 2.62141 15.0951 2.4981 15.1349C1.96816 15.3009 1.44773 15.4959 0.939308 15.719C0.617737 15.8326 0.327918 16.021 0.0938518 16.2685C0.0514232 16.316 0.0228666 16.3741 0.0113313 16.4367C-0.0146827 16.6085 0.004275 16.784 0.066345 16.9464C0.205875 17.2716 0.389442 17.5762 0.611933 17.8517C0.878078 18.1826 1.15491 18.5065 1.42815 18.8322C1.584 19.0425 1.80462 19.196 2.05626 19.2693C2.56247 19.3864 3.07485 19.475 3.59101 19.5348C3.90595 19.5773 4.22181 19.6056 4.53675 19.6463C4.89161 19.6923 5.24647 19.7472 5.60843 19.7941C5.92248 19.8357 6.23828 19.8667 6.55233 19.9118C6.86638 19.9569 7.19465 20.0047 7.51225 20.0675C7.8596 20.1321 8.19558 20.2472 8.50943 20.4091C8.85901 20.5958 9.22119 20.7578 9.59346 20.8941C10.1311 21.0622 10.6669 21.2321 11.2196 21.3471C11.6862 21.4436 12.1538 21.5339 12.6204 21.6294C12.9492 21.6776 13.2714 21.7625 13.5812 21.8825C14.0396 22.1029 14.4327 22.4384 14.7221 22.856C15.1274 23.4194 15.4507 24.0373 15.682 24.6913C15.8372 25.1099 15.9871 25.6771 16.0989 26.1072C16.2991 26.8082 16.4503 27.5223 16.5514 28.2443C16.5966 28.5522 16.6188 28.7549 16.657 29.2177C16.6916 29.6336 16.7102 29.8557 16.7537 30.4637C16.7732 30.7362 16.8078 31.1557 16.8078 31.6893C16.8078 31.884 16.8184 32.2495 16.8432 32.4424C17.2886 32.1661 17.669 31.7972 17.9585 31.361C18.3719 30.4938 18.9041 29.1487 17.1493 24.4108C16.8583 23.6249 16.4494 22.7294 17.0322 23.9975C18.3443 26.8576 18.7382 27.8434 18.8863 28.8938C19.1122 29.9573 18.9234 31.0667 18.3585 31.9964C18.1144 32.2941 17.8191 32.5462 17.4864 32.7406H17.4935C16.5644 33.1636 15.7998 33.8785 15.3165 34.7759C15.2494 34.9661 15.2038 35.1632 15.1807 35.3635C15.1479 35.6635 15.1612 35.6564 15.4575 35.691C17.4382 35.9149 19.4314 36.0106 21.4245 35.9777H22.7623C22.8907 35.9717 23.0177 35.9491 23.1402 35.9104C23.4286 35.7909 23.4952 35.2786 23.512 35.1565C23.5555 34.7202 23.6007 34.283 23.6415 33.8468C23.6735 33.5317 23.693 33.2149 23.7436 32.9025C23.8411 32.3557 23.9922 31.8198 24.195 31.3026C24.5676 30.3106 24.9651 29.3283 25.3643 28.3469C25.6571 27.6257 25.9685 26.9116 26.2736 26.1957C26.2943 26.1597 26.3194 26.1264 26.3482 26.0965C26.5957 26.2567 26.8334 26.4142 27.0738 26.5656C28.5625 27.3027 34.8977 28.3876 35.8123 28.5469C35.9539 28.5915 36.0726 28.6888 36.144 28.8186C36.4102 29.277 36.8299 30.6221 37.316 31.4893C37.5614 31.9279 37.844 32.3447 38.1606 32.7353C38.4374 33.0441 38.6583 33.2875 38.6583 33.2875C38.2712 33.6358 37.9149 34.0168 37.5937 34.4264C37.3346 34.8494 37.3941 35.868 37.6061 35.8865C38.102 35.9308 40.4299 36.0034 41.1228 35.9936C41.665 36.0271 42.2072 35.9287 42.7028 35.7069C42.8674 35.6153 43.0233 35.509 43.1686 35.3892C43.688 34.9745 44.0429 34.3893 44.1701 33.7379C44.3238 33.0301 44.3257 32.2979 44.1755 31.5893Z" fill="#E92E30"></path>
<path d="M59.763 26.1638V2.16047e-06H57.8263V26.1638H59.763Z" fill="#E92E30"></path>
<path d="M59.0054 32.0663C59.1262 32.0551 59.2481 32.0703 59.3625 32.1107C59.477 32.1511 59.5812 32.2159 59.6681 32.3004C59.755 32.385 59.8225 32.4874 59.8659 32.6005C59.9092 32.7137 59.9274 32.8348 59.9191 32.9556C59.9275 33.1227 59.8861 33.2884 59.8005 33.4321C59.7148 33.5759 59.5884 33.6911 59.4373 33.7636L59.9697 34.4998H59.2218L58.7588 33.8476H58.4403V34.4998H57.8192V32.0654L59.0054 32.0663ZM58.4358 32.6344V33.284H58.9681C59.0128 33.2898 59.0582 33.2857 59.1011 33.2719C59.144 33.2582 59.1833 33.2351 59.2162 33.2044C59.2491 33.1737 59.2749 33.1361 59.2915 33.0943C59.3081 33.0525 59.3151 33.0076 59.3123 32.9627C59.3169 32.9171 59.3111 32.8711 59.2953 32.8281C59.2794 32.7851 59.2538 32.7463 59.2206 32.7146C59.1874 32.6829 59.1475 32.6592 59.1037 32.6453C59.0599 32.6315 59.0136 32.6277 58.9681 32.6344H58.4358Z" fill="#E92E30"></path>
<path d="M58.7951 35.9511C58.0857 35.9504 57.4056 35.669 56.9039 35.1686C56.4023 34.6683 56.1202 33.9898 56.1195 33.2822C56.1202 32.5745 56.4023 31.8961 56.9039 31.3957C57.4056 30.8954 58.0857 30.6139 58.7951 30.6132C59.5045 30.6139 60.1846 30.8954 60.6862 31.3957C61.1879 31.8961 61.47 32.5745 61.4707 33.2822C61.47 33.9898 61.1879 34.6683 60.6862 35.1686C60.1846 35.669 59.5045 35.9504 58.7951 35.9511ZM58.7951 30.8734C58.1549 30.8741 57.5411 31.1281 57.0884 31.5797C56.6357 32.0313 56.3809 32.6435 56.3802 33.2822C56.3809 33.9208 56.6357 34.5331 57.0884 34.9847C57.5411 35.4363 58.1549 35.6903 58.7951 35.691C59.4353 35.6903 60.0491 35.4363 60.5018 34.9847C60.9545 34.5331 61.2093 33.9208 61.21 33.2822C61.209 32.6437 60.9542 32.0316 60.5015 31.5803C60.0488 31.1289 59.4352 30.8741 58.7951 30.8734Z" fill="#E92E30"></path>
</svg>
